<svg width="250" height="258" viewBox="0 0 250 258" fill="none" xmlns="http://www.w3.org/2000/svg">
<g filter="url(#filter0_d_8_4)">
<path d="M132.412 172.863L129.212 171.828V52.366C129.212 49.7814 126.852 47.6924 123.938 47.6924C121.025 47.6924 118.67 49.7784 118.67 52.366V172.314L115.739 173.541C106.726 177.295 100.903 186.026 100.903 195.78C100.903 209.072 111.711 219.879 124.999 219.879C138.286 219.879 149.095 209.075 149.095 195.78C149.096 185.301 142.388 176.091 132.412 172.863Z" fill="url(#paint0_linear_8_4)"/>
<path d="M152.107 148.817V28.6143C152.107 12.8355 139.271 0 123.493 0C107.714 0 94.8785 12.8355 94.8785 28.6143V150.689C79.9713 160.618 70.7834 177.395 70.7834 195.78C70.7834 225.679 95.1065 250 124.999 250C154.893 250 179.217 225.679 179.217 195.78C179.214 176.068 168.673 158.349 152.107 148.817ZM124.999 234.941C103.375 234.941 85.8424 217.408 85.8424 195.78C85.8424 179.5 95.7921 165.536 109.939 159.636V28.6143C109.939 21.135 116.005 15.061 123.492 15.061C130.979 15.061 137.046 21.1354 137.046 28.6143V77.5606H132.903V83.5896H137.046V99.0275H132.903V105.05H137.046V121.991H132.903V128.014H137.046V158.533C152.77 163.624 164.153 178.362 164.153 195.78C164.153 217.405 146.625 234.941 124.999 234.941Z" fill="url(#paint1_linear_8_4)"/>
</g>
<defs>
<filter id="filter0_d_8_4" x="-4" y="0" width="258" height="258" filterUnits="userSpaceOnUse" color-interpolation-filters="sRGB">
<feFlood flood-opacity="0" result="BackgroundImageFix"/>
<feColorMatrix in="SourceAlpha" type="matrix" values="0 0 0 0 0 0 0 0 0 0 0 0 0 0 0 0 0 0 127 0" result="hardAlpha"/>
<feOffset dy="4"/>
<feGaussianBlur stdDeviation="2"/>
<feComposite in2="hardAlpha" operator="out"/>
<feColorMatrix type="matrix" values="0 0 0 0 0 0 0 0 0 0 0 0 0 0 0 0 0 0 0.25 0"/>
<feBlend mode="normal" in2="BackgroundImageFix" result="effect1_dropShadow_8_4"/>
<feBlend mode="normal" in="SourceGraphic" in2="effect1_dropShadow_8_4" result="shape"/>
</filter>
<linearGradient id="paint0_linear_8_4" x1="124.999" y1="47.6924" x2="124.999" y2="219.879" gradientUnits="userSpaceOnUse">
<stop stop-color="#B20600"/>
<stop offset="1" stop-color="#FF5F00" stop-opacity="0.45"/>
</linearGradient>
<linearGradient id="paint1_linear_8_4" x1="125" y1="0" x2="125" y2="250" gradientUnits="userSpaceOnUse">
<stop stop-color="#B20600"/>
<stop offset="1" stop-color="#FF5F00" stop-opacity="0.45"/>
</linearGradient>
</defs>
</svg>
